<?xml version="1.0" encoding="utf-8"?>
<!-- Generator: Adobe Illustrator 19.0.0, SVG Export Plug-In . SVG Version: 6.00 Build 0)  -->
<svg version="1.1" id="Laag_2" xmlns="http://www.w3.org/2000/svg" xmlns:xlink="http://www.w3.org/1999/xlink" x="0px" y="0px"
	 width="140px" height="40px" viewBox="-227 400.9 140 40" style="enable-background:new -227 400.9 140 40;" xml:space="preserve">
<style type="text/css">
	.st0{fill:#FFFFFF;}
</style>
<g>
	<path class="st0" d="M-196.6,406.3c0.9,0.3,1.8,0.6,2.4,1.4c0.9,1.4,1,3.3,0,4.9c-0.7,1.1-1.7,2-2.8,2.6c-0.3,0.2-0.4,0.3-0.8,0.5
		c0.5,0.1,0.9,0.2,1.2,0.3c0.7,0.3,1.4,0.4,2,0.8c0.8,0.4,1.1,1.1,1.1,2c0,1.6,0,3.1,0,4.8c0,0.7,0.1,1.3,0.8,1.7
		c-0.2,0.1-0.4,0.2-0.6,0.1c-3-0.3-5.8,0-8.2,1.9c-0.6,0.4-1.2,0.3-1.8,0c-1.8-0.9-3.7-1.3-5.7-1c-1,0.2-2.1,0.4-3.1,0.9
		c-2,1.1-2,3.8,0.1,5c1.3,0.8,2.6,0.9,4.1,0.8c0.7-0.1,1.3-0.2,2-0.3c0.4-0.1,0.4-0.1,0.7,0.4c-2,0.4-3.9,0.6-5.8,0
		c-1.4-0.4-2.5-1.3-2.8-2.8c-0.3-1.6,0.3-2.8,1.5-3.8c0.3-0.3,0.7-0.5,1-0.7c3.2-1.7,6.5-2.1,10-0.8c0.2,0.1,0.3,0.1,0.6,0.2
		c0-4.4,0-8.8,0-13.2c0.4-0.2,0.6-0.1,0.6,0.3c0,1,0,2.1,0,3.1c0,0.3,0,0.4,0,0.7c2.3-0.3,3.7-2,4-4.3c0.1-0.9,0.1-2,0-3
		c-0.1-1.3-1-2-2.3-1.7c-1.2,0.3-2.1,0.9-3,1.7c-0.6,0.6-0.9,1.4-0.9,2.3c0,2.6-0.1,5.1,0,7.7c0.1,2-0.9,3.3-2.6,4.1
		c-0.3,0.2-0.7,0.3-1.2,0.3c0.1-0.2,0.2-0.4,0.3-0.6c0.7-0.4,0.9-1,0.9-1.8c0-2.8,0-5.7,0-8.5c0-0.7,0.2-1.3,0.6-1.8
		c1.8-2.1,4-3.7,6.8-4.4l0.1-0.1C-197.3,406.3-197,406.3-196.6,406.3z M-196.1,418.4c0-1.5-1.3-2.5-2.6-2c-1.7,0.5-1.7,0.5-1.6,2.2
		c0,0.3,0.2,0.5,0.4,0.6c1,0.3,2,0.4,3.1,0.1C-196.3,419.1-195.9,418.9-196.1,418.4z M-196.1,424.6c0-0.3,0-0.6,0-0.9
		c0.1-0.5-0.2-0.8-0.7-0.9c-1.1-0.3-2.1-0.3-3.2,0c-0.2,0.1-0.4,0.3-0.4,0.5c-0.1,0.6,0,1.3,0,1.9c0,0.5,0.3,0.6,0.7,0.5
		C-198.5,425.3-197.4,425-196.1,424.6z M-200.4,422.2c0.8-0.1,1.4-0.3,2.1-0.3s1.4,0.3,2.1,0.3c0-0.9,0-1.8,0-2.8
		c-1.4,0.6-2.8,0.6-4.3,0C-200.4,420.5-200.4,421.3-200.4,422.2z"/>
	<path class="st0" d="M-209.8,406.3c1.3,0.4,2.6,0.9,3.9,1.3c0.9,0.3,1.6,0,2.4-0.4c0.2-0.1,0.4-0.1,0.6-0.1c-1.4,2.1-3.7,2.9-6,2.1
		c-0.9-0.3-1.8-0.6-2.7-0.9c-0.9-0.3-1.8-0.1-2.4,0.7c-0.7,0.8-0.7,1.7-0.2,2.6c0.1,0.2,0,0.3,0,0.5c-0.1,0-0.2,0-0.3,0.1
		c-0.3-0.5-0.4-0.9-0.7-1.4c0-0.3,0-0.7,0-1.1c0.3-1,0.9-2,1.8-2.5c0.7-0.4,1.5-0.6,2.2-0.9C-210.6,406.3-210.1,406.3-209.8,406.3z"
		/>
	<path class="st0" d="M-147.8,427.2c-1.2-0.5-2.2-1.1-3.3-1.5c-0.3-0.2-0.8,0-1.2,0.1c-0.2,0-0.4,0.1-0.6,0.2c0-0.1-0.1-0.2-0.1-0.3
		c0.4-0.3,0.9-0.6,1.2-0.9c0.2-0.2,0.4-0.5,0.4-0.8c0-1.9,0-3.7,0-5.5c0-0.2-0.2-0.4-0.3-0.6c-0.2-0.3-0.3-0.4-0.4-0.7
		c1.4-0.2,2.7-0.3,4-0.5c1.1-0.2,2.1-0.5,3-1.2c0.2-0.2,0.7-0.1,0.9,0.1c0.5,0.3,0.9,0.6,1.4,0.9c0.7,0.5,1.4,0.7,2.1,0
		c0.2,0.2,0.3,0.3,0.3,0.4c-0.1,0.1-0.2,0.2-0.3,0.2c-1.3,0.5-1.5,1.4-1.4,2.7c0.1,1.7,0,3.4,0.1,5.1c0,0.3,0.2,0.6,0.3,0.8
		c2,1.5,2,4.3,0,5.7c-0.7,0.5-1.4,0.9-2.1,1.2c-1,0.5-2,1-3.1,1.5c-0.5,0.3-0.8,0.3-1.2-0.2c-0.4-0.5-1-0.9-1.5-1.4
		c-0.9-0.6-1.9-0.7-2.9-0.2c-0.2,0.1-0.4,0-0.7,0c0-0.1,0-0.2-0.1-0.2C-151.5,430.4-149.7,428.8-147.8,427.2z M-144.4,421.3
		c0-0.9,0-1.7,0-2.6c0-0.2-0.1-0.5-0.2-0.5c-1.3-0.5-2.5-1.5-4-0.9c-0.3,0.2-0.5,0.3-0.5,0.7c0,1.9,0,3.7,0,5.6
		c0,0.4,0.2,0.6,0.5,0.7c0.8,0.3,1.6,0.5,2.4,0.9c0.7,0.3,1.8-0.5,1.8-1.2C-144.4,423-144.4,422.1-144.4,421.3z M-144.4,425
		c-2.6,2.2-4.9,4.3-7.4,6.4c0.2,0,0.3,0.1,0.3,0.1c0.2-0.1,0.3-0.1,0.5-0.2c1.5-0.5,3.1-0.7,4.5,0.3c1.1,0.9,1.9,0.6,2.8,0
		c0.1-0.1,0.2-0.1,0.3-0.2c1.8-1,2-2.5,0.3-3.7C-143.8,427-144.5,426.3-144.4,425z"/>
	<path class="st0" d="M-134.1,425.1c0.9-0.6,0.9-0.6,1.2-0.2c-1,0.7-2,1.4-3,2c-0.3,0.3-0.6,0.2-0.9-0.1c-0.3-0.3-0.7-0.7-1-0.9
		c-0.4-0.3-0.9-0.6-1.4-0.2c-0.1,0.1-0.3-0.1-0.5-0.1c0-0.1,0-0.1,0-0.2c0.5-0.3,1.1-0.6,1.5-0.9c0.2-0.2,0.4-0.5,0.4-0.8
		c0-4.3,0-8.7,0-13c0-0.8-0.3-1.5-0.3-2.3c0-0.2,0.1-0.4,0.1-0.7c0.1,0,0.2,0,0.3,0c0.3,0.6,0.6,1.1,0.9,1.7
		c0.7-0.8,1.4-1.6,2.2-2.4c0.2,0.2,0.3,0.3,0.4,0.4c-1.2,1.2-1.3,2.7-1.2,4.3c0,2.1,0,4.3,0,6.5c0.2-0.1,0.3-0.2,0.5-0.3
		c1.4-0.9,2.7-1.8,4.1-2.6c0.4-0.3,0.8-0.3,1.1,0.1c0.3,0.3,0.7,0.5,1,0.8c0.5,0.5,1,0.7,1.7,0.3c0.1-0.1,0.3,0.1,0.6,0.1
		c-0.1,0.2-0.2,0.3-0.2,0.3c-1.6,0.6-2,1.7-1.8,3.3c0.2,1.2,0.1,2.4,0,3.6c0,0.7,0.1,1.2,0.7,1.5c0.2,0.1,0.2,0.3,0.3,0.4
		c-0.2,0-0.3,0.2-0.5,0.1c-0.7-0.2-1.3-0.2-1.9,0.3c-0.9,0.5-1.1,1.3-0.5,2.1c0.3,0.5,0.8,0.9,1.2,1.4c1.3,1.5,0.8,3.3-1.2,3.8
		c-0.3,0.1-0.5-0.1-0.9-0.1c1.2-0.9,1.1-2,0.7-3c-0.5-1.1-0.9-2.2-0.6-3.3c0.9-2.9,0.3-5.8,0.4-8.7c0-0.3-0.3-0.5-0.6-0.7
		c-0.6-0.6-1.3-0.5-2,0c-0.7,0.5-1.7,0.8-2,1.4c-0.3,0.7-0.1,1.7-0.2,2.6c0,0.5,0.1,0.9,0,1.4C-135.6,424.1-135.1,424.7-134.1,425.1
		z"/>
	<path class="st0" d="M-158.9,423.9c-1.6,1.1-3,2-4.4,3c-0.6,0.4-1,0.3-1.4-0.1c-0.3-0.3-0.5-0.4-0.8-0.6c-0.9-0.7-1.3-0.7-2.2,0
		c-0.3,0.3-0.3,0.3-0.7-0.1c0.7-0.5,1.4-0.9,2-1.4c0.2-0.2,0.3-0.4,0.3-0.7c0-1.8,0.1-3.7,0-5.4c0-0.5-0.6-1.1-0.9-1.6
		c-0.4,0.3-0.8,0.5-1,0.8c-0.1-0.2-0.3-0.3-0.3-0.4c0-0.1,0.1-0.1,0.1-0.1c0.8-0.6,1.6-1.1,2.4-1.7c0.4-0.3,0.8-0.3,1.2,0.1
		c0.8,0.8,1.1,1.5,1,2.6c-0.1,1.8,0,3.6,0,5.4c0,0.5,0.2,0.9,0.6,1.1c0.3,0.2,0.7,0.4,1,0.7c0.9-0.6,1.9-1.3,2.8-2
		c0.2-0.1,0.3-0.4,0.3-0.6c0-1.4,0-2.7,0-4.1c0-0.3-0.2-0.5-0.3-0.7c-0.3-0.3-0.6-0.5-0.9-0.8c-0.3,0.2-0.5,0.3-0.8,0.4
		c-0.1,0-0.1-0.1-0.2-0.1c0.1-0.2,0.1-0.4,0.2-0.6c0.7-0.6,1.4-1.1,2.2-1.6c0.3-0.3,0.6-0.2,0.9,0.1c1.4,1.5,1.4,1.5,3.4,0.4
		c-0.1,0.3-0.2,0.6-0.3,0.8c-0.1,0.1-0.2,0.2-0.3,0.2c-1.4,0.6-1.9,1.6-1.6,3.1c0.2,1.1,0,2.2,0,3.3c0,0.4,0.9,1.7,1.4,1.8
		c0.2,0,0.3-0.1,0.4-0.1s0.3,0,0.5,0c0,0.1,0,0.2,0.1,0.2c-0.9,0.6-1.7,1.3-2.6,1.9c-0.2,0.1-0.7,0-0.9-0.2
		C-158.5,426.2-159.2,425.3-158.9,423.9z"/>
	<path class="st0" d="M-112.5,408.4c0.3,0.4,0.4,0.9,0.7,1.4c0.9-0.9,1.6-1.8,2.4-2.6c0.1,0,0.2,0,0.3,0c0,0.2,0.1,0.5,0,0.6
		c-0.9,1.3-1.1,2.7-1.1,4.2c0,3.9,0,7.8,0,11.8c0,0.3,0.3,0.6,0.4,0.8c0.3,0.3,0.6,0.4,0.9,0.6c0.4,0.1,0.7-0.8,1.2-0.1
		c-0.9,0.7-1.7,1.4-2.6,2c-0.2,0.1-0.6,0-0.9-0.2c-0.3-0.2-0.5-0.5-0.9-0.8c-0.6-0.5-1.3-0.7-2-0.2c-0.2,0.1-0.4,0-0.6,0
		c0-0.1,0-0.2-0.1-0.3c0.6-0.3,1.2-0.6,1.8-0.9c0.2-0.1,0.3-0.4,0.3-0.6c0-4.6,0-9.2,0-13.8c0-0.5-0.1-1-0.2-1.5
		c0-0.2,0.1-0.3,0.2-0.6C-112.7,408.4-112.6,408.4-112.5,408.4z"/>
	<path class="st0" d="M-169.7,424.5c-1.5,0.9-3,1.7-4.5,2.6c-0.3,0.2-0.8,0.1-1-0.1c-0.5-0.3-0.9-0.7-1.4-1
		c-0.6-0.4-1.2-0.5-1.9-0.2c-0.2,0.1-0.4,0.1-0.6,0.1c0-0.1-0.1-0.2-0.1-0.3c0.1,0,0.1-0.1,0.2-0.1c1.4-0.5,1.8-1.4,1.6-2.8
		c-0.2-1.3,0-2.6,0-3.8c0-0.5,0.1-1-0.5-1.4c-0.1-0.1-0.2-0.3-0.2-0.3c1.5-0.5,3.1-0.9,4.5-1.5c1.3-0.5,1.2-0.6,2,0.5
		c0.6,0.8,1.2,1.5,1.8,2.3c0.3,0.4,0.3,0.8-0.2,1c-1.6,0.9-3.1,1.8-4.7,2.6c-0.7,0.3-0.3,0.9-0.4,1.4s0.2,0.6,0.5,0.8
		c0.7,0.3,1.4,0.9,2.1,0.9c0.7,0,1.4-0.6,2-1C-170.2,424.1-169.9,424.1-169.7,424.5z M-174.2,416.4c-0.3,0.3-0.9,0.5-0.9,0.8
		c-0.1,1.5-0.1,3-0.1,4.7c1.3-0.8,2.4-1.4,3.6-2C-172.5,418.7-173.2,417.6-174.2,416.4z"/>
	<path class="st0" d="M-116.3,424.5c-1.5,0.9-3,1.7-4.5,2.6c-0.3,0.1-0.7,0-0.9-0.1c-0.5-0.3-0.9-0.7-1.4-1c-0.6-0.4-1.3-0.5-2-0.2
		c-0.2,0.1-0.4,0-0.8,0c0.2-0.2,0.2-0.3,0.2-0.3c1.4-0.4,1.8-1.4,1.6-2.9c-0.2-1.1,0-2.2,0-3.3c0-0.8,0.2-1.6-0.9-2.1
		c0.9-0.2,1.6-0.3,2.3-0.5c1-0.3,2-0.9,3.1-1.3c0.4-0.2,0.6-0.2,0.9,0.2c0.8,1,1.6,2,2.4,3.1c0.3,0.3,0.3,0.7-0.2,0.9
		c-1.5,0.9-3.1,1.9-4.7,2.6c-0.7,0.3-0.4,0.9-0.5,1.4c-0.1,0.5,0.3,0.6,0.6,0.8c0.7,0.3,1.4,0.9,2.1,0.9c0.7,0,1.4-0.6,2-1
		C-116.8,424.1-116.6,424.1-116.3,424.5z M-118.2,419.8c-0.9-1.1-1.6-2.2-2.6-3.4c-0.3,0.3-0.9,0.5-1,0.8c-0.1,1.5-0.1,3.1-0.1,4.7
		C-120.6,421.2-119.5,420.6-118.2,419.8z"/>
	<path class="st0" d="M-185.8,418c0.9-0.9,1.8-1.7,2.6-2.6c0.3-0.4,0.7-0.4,1,0.1c0.3,0.6,0.9,0.9,1.6,0.9c0.2,0,0.4,0.2,0.5,0.3
		c0,0.2-0.1,0.4-0.2,0.6c-1.2,1.4-2.6,1.4-4.1,0.1c-0.4,0.3-0.9,0.8-1.2,1.1c-0.1,0.1-0.2,0.3-0.2,0.5c0,1.5,0,3.1,0,4.6
		c0,0.2,0.2,0.4,0.3,0.6c0.1,0.2,0.3,0.2,0.4,0.3c0.7,0.7,1.4,0.7,2.1,0c0.2-0.1,0.4,0,0.7,0c0,0.1,0,0.1,0,0.2
		c-1,0.7-2.1,1.4-3.1,2.1c-0.4,0.3-0.8,0.3-1.1-0.2c-0.3-0.3-0.8-0.7-1.1-1c-0.9-0.6-1.3-0.6-2,0.1c-0.2,0.1-0.3,0.3-0.4,0.3
		c-0.2-0.1-0.3-0.3-0.4-0.3c0.7-0.5,1.4-1,2-1.5c0.2-0.2,0.3-0.4,0.3-0.7c0-1.6,0-3.3,0-4.9c0-0.8-0.6-1.1-1-1.4
		c-0.2-0.2-0.7,0.1-1.2,0.3c0,0-0.2-0.2-0.3-0.3c0-0.1,0-0.1,0.1-0.2c0.8-0.6,1.5-1.1,2.3-1.7c0.3-0.3,0.7-0.3,1,0
		C-186.3,416.1-185.7,416.7-185.8,418z"/>
	<path class="st0" d="M-209.4,417.3c-0.7,0.1-1.3,0-1.9,0.3c-0.3,0.2-0.6,0.7-0.9,1c-0.2,0.2-0.3,0.3-0.5,0.6
		c-0.3-2.3,0.4-3.2,3.2-3.8c0-0.3,0-0.8,0-1.1c-0.1-1.2,0.4-2.1,1.4-2.7c0.6-0.4,1.3-0.7,2-0.9c0.1-0.1,0.3,0,0.4,0.1
		c-0.1,0.1-0.1,0.3-0.2,0.3c-0.8,0.4-0.9,1.2-0.9,2c0,2.6,0,5,0,7.6c0,1-0.3,1.9-1.2,2.5c-0.8,0.5-1.6,0.9-2.4,1.4
		c-0.1-0.1-0.2-0.2-0.3-0.3c0.2-0.3,0.3-0.4,0.4-0.7c0.3-0.4,0.7-0.8,0.7-1.2C-209.3,420.7-209.4,419.1-209.4,417.3z"/>
	<path class="st0" d="M-184.7,413.2c0.3-0.3,0.5-0.7,0.6-0.9c0.3-1.2,0.7-2.5,1-3.7c0.2-0.4,0.2-0.9-0.4-1c1.4,0,3,0,4.5,0
		c-0.1,0.5-0.3,1-0.3,1.6c-0.5-1.3-0.8-1.5-1.7-1.4c-0.3,0-0.5,0.3-0.6,0.4c-0.3,0.6-0.3,1.1-0.5,1.8c0.9,0.3,1.4-0.1,1.8-0.9
		c0.1,0.1,0.1,0.1,0.2,0.2c-0.2,0.8-0.4,1.4-0.6,2.2c-0.1-0.7-0.3-1.2-1.1-1.1c-0.2,0-0.3,0.2-0.4,0.3c-0.2,0.6-0.3,1.2-0.5,1.7
		c-0.1,0.4,0.1,0.6,0.5,0.6c1.1,0,2-0.4,2.7-1.4c-0.2,0.4-0.3,0.9-0.4,1.4c0,0.1-0.3,0.3-0.3,0.3
		C-181.9,413.2-183.4,413.2-184.7,413.2z"/>
	<path class="st0" d="M-176.6,409.9c1,0.1,1,0.1,2-0.9c-0.3,0.9-0.4,1.6-0.6,2.4c-0.1,0-0.1,0-0.2,0c0-0.2,0-0.4-0.1-0.5
		c-0.2-0.3-0.4-0.5-0.8-0.6c-0.3-0.2-0.5,0.1-0.6,0.4c-0.1,0.5-0.3,1-0.4,1.4c-0.2,0.5,0,0.7,0.5,0.7c0.9,0,1.8-0.3,2.4-1.1
		c0.1-0.1,0.2-0.2,0.3-0.3c-0.2,0.5-0.3,0.9-0.4,1.4c0,0.1-0.2,0.2-0.3,0.2c-1.4,0-3,0-4.3,0c0.3-0.4,0.5-0.8,0.6-1.1
		c0.3-1.2,0.6-2.4,1-3.6c0.2-0.5,0.1-0.9-0.4-1c1.4,0,2.9,0,4.5,0c-0.1,0.5-0.3,1-0.3,1.5c-0.1,0-0.1,0-0.2,0c0-0.2-0.1-0.3-0.1-0.4
		c-0.2-0.8-0.8-0.8-1.4-0.9c-0.6-0.1-0.8,0.3-0.9,0.8C-176.3,408.9-176.5,409.4-176.6,409.9z"/>
	<path class="st0" d="M-191.8,437.2c0.3-0.3,0.5-0.7,0.6-1c0.3-1.2,0.7-2.4,1-3.6c0.2-0.5,0.3-0.9-0.4-1c1.4,0,3,0,4.5,0
		c-0.1,0.5-0.3,1-0.3,1.4c-0.1,0-0.1,0.1-0.2,0.1c0-1-0.6-1.4-1.4-1.4c-0.4,0-0.7,0.1-0.8,0.5c-0.1,0.6-0.3,1.2-0.5,1.8
		c0.9,0.2,1.4-0.2,1.9-0.9c0,0.1,0.1,0.1,0.1,0.2c-0.2,0.8-0.4,1.4-0.6,2.2c-0.2-0.5-0.3-1.1-0.9-1.1c-0.3,0-0.5,0-0.6,0.4
		c-0.1,0.5-0.3,1-0.4,1.5c-0.3,0.6,0.1,0.7,0.6,0.7c1,0,1.8-0.3,2.4-1.3c0.1-0.1,0.1-0.1,0.3-0.1c-0.2,0.4-0.3,0.9-0.4,1.4
		c-0.1,0.1-0.3,0.3-0.4,0.3C-189,437.2-190.4,437.2-191.8,437.2z"/>
	<path class="st0" d="M-162.5,431.5c1.4,0,2.9,0,4.4,0c-0.1,0.5-0.3,1-0.3,1.4c-0.2-0.9-0.7-1.3-1.5-1.4c-0.4,0-0.8,0.1-0.9,0.6
		c-0.1,0.6-0.3,1.1-0.4,1.7c0.9,0.3,1.4-0.2,2-0.8c-0.2,0.8-0.4,1.4-0.6,2.2c-0.2-0.6-0.3-1.1-1-1.1c-0.2,0-0.5,0.2-0.5,0.3
		c-0.2,0.5-0.3,1.1-0.4,1.6c-0.2,0.5,0.1,0.7,0.6,0.7c1,0,1.9-0.3,2.4-1.2c0.1-0.1,0.1-0.1,0.2-0.2c0,0,0,0,0.1,0
		c-0.2,0.4-0.3,0.9-0.4,1.3c-0.1,0.1-0.3,0.3-0.4,0.3c-1.4,0-2.9,0-4.3,0c0.3-0.4,0.5-0.8,0.6-1.2c0.3-1.1,0.6-2.3,0.9-3.5
		C-161.9,432.1-161.8,431.7-162.5,431.5z"/>
	<path class="st0" d="M-193.1,433.1c-0.3,0.9-0.4,1.6-0.7,2.4c-0.1,0-0.1,0-0.2,0c0-0.2,0-0.3-0.1-0.5c-0.1-0.5-0.4-0.5-0.9-0.6
		c-0.4-0.1-0.4,0.3-0.5,0.5c-0.1,0.5-0.3,1-0.4,1.4c-0.2,0.6,0.1,0.7,0.6,0.7c1.1,0,2-0.4,2.7-1.4c-0.2,0.4-0.3,0.9-0.4,1.4
		c0,0.1-0.2,0.2-0.3,0.2c-0.1,0-0.3,0-0.3,0c-1.4,0-2.7,0-4,0c0.2-0.4,0.5-0.8,0.6-1.2c0.3-1.2,0.6-2.4,1-3.6
		c0.2-0.5,0.1-0.8-0.4-0.9c1.4,0,2.9,0,4.5,0c-0.1,0.5-0.3,0.9-0.3,1.6c-0.1-0.3-0.2-0.3-0.2-0.4c-0.2-0.8-0.9-1.4-1.7-1
		c-0.2,0.1-0.3,0.3-0.4,0.4c-0.2,0.6-0.3,1.2-0.5,1.9C-194.2,434.2-194.2,434.1-193.1,433.1z"/>
	<path class="st0" d="M-157.9,407.5c-1.4,1.9-2.6,3.6-3.9,5.4c1.4,0.1,2.6-0.2,3.2-1.4c0.1,0,0.1,0.1,0.2,0.1
		c-0.2,0.4-0.3,0.9-0.4,1.4c0,0.1-0.3,0.2-0.3,0.2c-1.3,0-2.6,0-4.2,0c1.4-1.9,2.6-3.6,3.8-5.4c-1.3-0.3-2.1,0.3-2.8,1.2
		c-0.2-1.1,0.3-1.5,1.2-1.5C-160.1,407.5-159.1,407.5-157.9,407.5z"/>
	<path class="st0" d="M-188,409.9c0.9,0.3,1.4-0.2,1.9-0.8c-0.2,0.8-0.4,1.4-0.6,2.2c-0.2-0.5-0.2-1.1-0.9-1.1c-0.3,0-0.5,0-0.6,0.4
		c-0.1,0.5-0.3,1-0.4,1.4c-0.2,0.5-0.1,0.9,0.5,0.9c-0.9,0-1.6,0-2.3,0c0.2-0.3,0.4-0.7,0.6-1.1c0.3-1.1,0.6-2.2,0.9-3.3
		c0.2-0.5,0.3-1-0.4-1.2c1.4,0,2.9,0,4.4,0c-0.1,0.5-0.3,1-0.4,1.7c-0.3-1.3-0.6-1.4-1.5-1.4c-0.4,0-0.7,0.1-0.8,0.5
		c0,0.1-0.1,0.2-0.1,0.3C-187.8,409-187.9,409.4-188,409.9z"/>
	<path class="st0" d="M-167.2,437.2c-0.6,0-1.4,0-2,0c0.2-0.3,0.4-0.8,0.6-1.2c0.3-1.1,0.6-2.3,0.9-3.4c0.2-0.7,0.2-0.8-0.4-1.1
		c0.7,0,1.4,0,2.1,0c0.7,0,1.4,0,2.2,0c-0.1,0.5-0.3,1-0.3,1.5h-0.1c0-0.1-0.1-0.3-0.1-0.3c-0.2-0.7-1.1-1.2-1.7-0.9
		c-0.2,0.1-0.3,0.3-0.3,0.4c-0.2,0.6-0.3,1.2-0.5,1.9c0.9,0.2,1.4-0.2,1.9-0.8c-0.2,0.8-0.4,1.4-0.6,2.2c-0.2-0.6-0.3-1.2-1-1.1
		c-0.2,0-0.4,0.2-0.4,0.3c-0.2,0.6-0.3,1.1-0.5,1.7C-167.5,436.6-167.4,436.9-167.2,437.2z"/>
	<path class="st0" d="M-163,407.5c-0.1,0.5-0.2,1-0.3,1.7c-0.1-0.3-0.2-0.4-0.2-0.5c-0.2-0.3-0.3-0.6-0.4-0.8
		c-0.4-0.3-0.7-0.3-0.9,0.3c-0.3,1.3-0.7,2.6-1,3.8c-0.2,0.6-0.2,0.9,0.6,1c-0.9,0-1.8,0-2.7,0c0.9-0.2,0.9-0.9,1-1.4
		c0.3-1.3,0.7-2.6,1.1-3.8c-0.8-0.1-1,0-2,1c0.1-0.4,0.2-0.9,0.3-1.4C-166.1,407.5-164.6,407.5-163,407.5z"/>
	<path class="st0" d="M-176,436.1c-0.3,0.3-0.4,0.5-0.7,0.7c-0.9,0.7-1.9,0.8-2.9,0.2c-0.9-0.5-1.1-1.4-1-2.5c0.3-1.9,2-3.7,4.4-3.1
		c0.3,0.1,0.6,0,1,0c-0.1,0.5-0.3,1.1-0.4,1.8c-0.1,0-0.1,0-0.2,0c0-0.2-0.1-0.3-0.1-0.4c-0.1-1.1-1-1.5-2-0.9
		c-1.1,0.7-1.9,3-1.5,4.2c0.3,0.9,1.3,1.2,2.1,0.6c0.3-0.2,0.6-0.5,0.9-0.8C-176,436.1-176,436.1-176,436.1z"/>
	<path class="st0" d="M-182.9,437.2c-0.9,0-1.7,0-2.4,0c0.2-0.3,0.5-0.7,0.7-1.1c0.4-1.4,0.8-2.8,1.2-4.3c-0.9-0.2-1.4,0.5-1.9,1.1
		c-0.2-1.1,0.1-1.4,1.1-1.4c1.2,0,2.5,0,3.7,0c-0.1,0.6-0.2,1-0.3,1.7c-0.6-1.3-0.6-1.3-1.4-1.4c-0.3,0.9-0.5,1.8-0.8,2.7
		c-0.2,0.5-0.3,1.1-0.4,1.6C-183.6,436.6-183.6,437.1-182.9,437.2z"/>
	<path class="st0" d="M-168.7,407.5c-0.1,0.4-0.2,0.9-0.3,1.4c-0.1,0-0.1,0-0.2,0c-0.1-0.3-0.1-0.4-0.2-0.7c-0.2-0.5-0.5-0.9-1-0.8
		c-0.3,0.1-0.7,0.3-0.8,0.5c-0.3,0.4,0,0.9,0.3,1.2c0.3,0.3,0.7,0.6,1,0.9c0.7,0.7,0.9,1.4,0.4,2.1c-0.3,0.7-1.3,1.1-2.1,1
		c-0.3,0-0.4-0.2-0.7-0.2c-0.3,0-0.6,0-1,0c0.1-0.4,0.2-1.1,0.3-1.7c0.1,0,0.1,0,0.2,0c0.1,0.3,0.1,0.5,0.3,0.8
		c0.3,0.5,0.6,0.9,1.2,0.9c0.3,0,0.9-0.3,0.9-0.6c0.2-0.3,0.1-0.9-0.2-1.1c-0.3-0.4-0.7-0.7-1.1-1.1c-0.8-0.8-0.9-1.4-0.5-2.1
		c0.3-0.7,1.2-0.9,2.1-0.7C-169.6,407.5-169.2,407.5-168.7,407.5z"/>
	<path class="st0" d="M-141.5,411.6c-0.1,0.4-0.2,0.9-0.3,1.3c-0.1,0.2-0.3,0.3-0.4,0.3c-1.4,0-2.9,0-4.2,0c0.2-0.4,0.5-0.9,0.6-1.4
		c0.3-1.1,0.6-2.2,0.9-3.3c0.1-0.4,0.2-0.9-0.4-1c0.9,0,1.6,0,2.5,0c-0.9,0.3-0.9,1-1,1.6c-0.3,1-0.6,2-0.9,3.1
		c-0.2,0.7,0,0.9,0.7,0.8c1-0.1,1.9-0.5,2.5-1.4C-141.6,411.5-141.5,411.6-141.5,411.6z"/>
	<path class="st0" d="M-156.9,413.1c-0.5,0-1,0-1.4,0c1.4-1.8,2.5-3.9,4-6c0.3,1.6,0.5,3.1,0.8,4.5c0.1,0.5-0.1,1.3,0.8,1.4
		c-0.9,0-1.6,0-2.6,0c0.9-0.3,0.9-0.6,0.6-1.8c-0.5,0-1.1-0.2-1.4,0.1c-0.4,0.2-0.7,0.8-0.9,1.2
		C-157.3,412.7-157.1,412.9-156.9,413.1z M-154.9,411c-0.1-0.7-0.2-1.4-0.3-2.1c-0.5,0.8-0.9,1.4-1.3,2.1
		C-155.9,411-155.4,411-154.9,411z"/>
	<path class="st0" d="M-171.4,431.5c0.3,1.6,0.5,3.2,0.9,4.8c0.1,0.3,0.3,0.6,0.4,0.9c-0.7,0-1.4,0-2.2,0c0.7-0.4,0.7-0.5,0.3-1.7
		c-0.5,0-1.1-0.2-1.5,0.1c-0.4,0.2-0.7,0.7-0.9,1.1c-0.1,0.1,0.2,0.3,0.3,0.6c-0.4,0-0.9,0-1.2,0c1.2-1.9,2.5-3.8,3.7-5.8
		C-171.4,431.5-171.4,431.5-171.4,431.5z M-173.5,435.1c0.6,0,1.1,0,1.6,0c-0.1-0.7-0.2-1.3-0.3-2.1
		C-172.7,433.8-173.1,434.4-173.5,435.1z"/>
	<path class="st0" d="M-151.1,413.1c-0.4,0-0.9,0-1.3,0c1.3-2,2.5-3.8,3.8-6c0.3,1.4,0.4,2.5,0.6,3.6c0.1,0.5,0.2,1,0.3,1.5
		c0.1,0.3,0.3,0.6,0.5,0.9c-0.7,0-1.4,0-2.2,0c0.2-0.2,0.4-0.4,0.5-0.7c0.1-0.3-0.1-0.7-0.1-1c-0.6,0-1.2-0.2-1.6,0.1
		c-0.4,0.2-0.7,0.8-0.9,1.2C-151.5,412.7-151.3,412.9-151.1,413.1z M-149.4,408.9c-0.5,0.8-0.9,1.4-1.3,2.1c0.6,0,1.1,0,1.6,0
		C-149.2,410.4-149.3,409.7-149.4,408.9z"/>
	<path class="st0" d="M-160.6,430.8c0.4-0.3,0.9-0.8,1.4-1c0.2-0.1,0.4,0,0.7,0c-0.1,0.2-0.1,0.5-0.3,0.6c-0.4,0.3-0.9,0.6-1.4,0.9
		C-160.5,430.9-160.6,430.9-160.6,430.8z"/>
</g>
</svg>
