<?xml version="1.0" encoding="UTF-8"?>
<svg width="84px" height="90px" viewBox="0 0 84 90" version="1.1" xmlns="http://www.w3.org/2000/svg" xmlns:xlink="http://www.w3.org/1999/xlink">
    <!-- Generator: Sketch 52.6 (67491) - http://www.bohemiancoding.com/sketch -->
    <title>analyze</title>
    <desc>Created with Sketch.</desc>
    <g id="Page-1" stroke="none" stroke-width="1" fill="none" fill-rule="evenodd">
        <g id="analyze">
            <polygon id="bg" fill="#FFFFFF" fill-rule="nonzero" points="3.7 3 80.7 3 80.7 76 62.5 90 3.7 90"></polygon>
            <path d="M0.7,0 L0.7,90 L62.5,90 L83.3,74.3 L83.3,41.8 L83.3,38.2 L83.3,0 L0.7,0 Z M63.5,85.4 L63.4,75 L77.3,75 L63.5,85.4 Z M80.2,47.7 L80.2,72 L60.2,72 L60.4,86.9 L3.8,86.9 L3.8,3.1 L80.3,3.1 L80.3,44.1 L80.3,47.7 L80.2,47.7 Z" id="Shape" fill="#000000" fill-rule="nonzero"></path>
            <rect id="Rectangle" fill="#000000" x="68.1" y="43.4" width="4.6" height="14.3"></rect>
            <rect id="Rectangle" fill="#000000" x="61.8" y="48.8" width="4.6" height="9"></rect>
            <rect id="Rectangle" fill="#000000" x="55.4" y="44.9" width="4.6" height="12.8"></rect>
            <rect id="Rectangle" fill="#000000" x="49" y="50.6" width="4.6" height="7.2"></rect>
            <path d="M70.4,38.1 C71.6,38.1 72.6,37.1 72.6,35.9 C72.6,34.7 71.6,33.7 70.4,33.7 C69.2,33.7 68.2,34.7 68.2,35.9 C68.2,36.3 68.3,36.7 68.5,37 L65,41 C64.7,40.9 64.4,40.8 64.1,40.8 C63.6,40.8 63.2,40.9 62.9,41.2 L59.9,38.9 C59.9,38.7 60,38.5 60,38.4 C60,37.2 59,36.2 57.8,36.2 C56.6,36.2 55.6,37.2 55.6,38.4 C55.6,38.7 55.7,39.1 55.8,39.3 L52.3,43.3 C52,43.2 51.8,43.1 51.5,43.1 C50.3,43.1 49.3,44.1 49.3,45.3 C49.3,46.5 50.3,47.5 51.5,47.5 C52.7,47.5 53.7,46.5 53.7,45.3 C53.7,44.9 53.6,44.5 53.4,44.2 L56.9,40.3 C57.2,40.4 57.5,40.5 57.9,40.5 C58.4,40.5 58.9,40.3 59.2,40.1 L62.1,42.4 C62,42.6 62,42.8 62,43.1 C62,44.3 63,45.3 64.2,45.3 C65.4,45.3 66.4,44.3 66.4,43.1 C66.4,42.7 66.3,42.4 66.1,42.1 L69.7,38.1 C69.8,38.1 70.1,38.1 70.4,38.1 Z M69.7,35.8 C69.7,35.7 69.7,35.7 69.7,35.8 C69.7,35.7 69.7,35.7 69.7,35.7 C69.7,35.7 69.7,35.6 69.8,35.6 C69.8,35.6 69.8,35.6 69.8,35.6 C69.8,35.6 69.8,35.5 69.9,35.5 C70,35.3 70.2,35.2 70.5,35.2 C70.9,35.2 71.2,35.5 71.2,35.9 C71.2,36.1 71.1,36.3 71,36.4 C71,36.4 70.9,36.5 70.9,36.5 C70.9,36.5 70.9,36.5 70.9,36.5 C70.9,36.5 70.8,36.6 70.8,36.6 C70.8,36.6 70.8,36.6 70.8,36.6 C70.8,36.6 70.7,36.6 70.7,36.6 C70.7,36.6 70.7,36.6 70.7,36.6 C70.6,36.6 70.6,36.6 70.5,36.6 C70.1,36.6 69.8,36.3 69.8,35.9 C69.7,35.9 69.7,35.8 69.7,35.8 Z M52,45.4 C52,45.5 52,45.5 52,45.4 C52,45.5 52,45.5 52,45.5 C52,45.5 52,45.6 51.9,45.6 C51.9,45.6 51.9,45.6 51.9,45.6 C51.9,45.6 51.9,45.7 51.8,45.7 C51.7,45.9 51.5,46 51.2,46 C50.8,46 50.5,45.7 50.5,45.3 C50.5,45.1 50.6,44.9 50.7,44.8 C50.8,44.7 50.8,44.7 50.9,44.6 C50.9,44.6 50.9,44.6 50.9,44.6 C50.9,44.6 51,44.6 51,44.6 C51,44.6 51,44.6 51,44.6 C51.1,44.6 51.1,44.6 51.2,44.6 C51.6,44.6 51.9,44.9 51.9,45.3 C52,45.3 52,45.4 52,45.4 Z M57.7,39.1 C57.3,39.1 57,38.8 57,38.4 C57,38 57.3,37.7 57.7,37.7 C58.1,37.7 58.4,38 58.4,38.4 C58.4,38.7 58.1,39.1 57.7,39.1 Z M64,43.8 C63.6,43.8 63.3,43.5 63.3,43.1 C63.3,42.7 63.6,42.4 64,42.4 C64.4,42.4 64.7,42.7 64.7,43.1 C64.8,43.4 64.5,43.8 64,43.8 Z" id="graphline" fill="#000000" fill-rule="nonzero"></path>
            <path d="M51.5,75.9 L10.5,75.9 C9.8,75.9 9.3,76.4 9.3,77.1 C9.3,77.8 9.8,78.3 10.5,78.3 L51.5,78.3 C52.2,78.3 52.7,77.8 52.7,77.1 C52.7,76.5 52.2,75.9 51.5,75.9 Z" id="line" fill="#000000"></path>
            <path d="M70.9,63.6 L10.5,63.6 C9.8,63.6 9.3,64.1 9.3,64.8 C9.3,65.5 9.8,66 10.5,66 L70.9,66 C71.6,66 72.1,65.5 72.1,64.8 C72.1,64.1 71.6,63.6 70.9,63.6 Z" id="line" fill="#000000"></path>
            <path d="M40.9,50.6 L10.5,50.6 C9.8,50.6 9.3,51.1 9.3,51.8 C9.3,52.5 9.8,53 10.5,53 L40.9,53 C41.6,53 42.1,52.5 42.1,51.8 C42.1,51.1 41.6,50.6 40.9,50.6 Z" id="line" fill="#000000"></path>
            <path d="M40.9,37.6 L10.5,37.6 C9.8,37.6 9.3,38.1 9.3,38.8 C9.3,39.5 9.8,40 10.5,40 L40.9,40 C41.6,40 42.1,39.5 42.1,38.8 C42.1,38.2 41.6,37.6 40.9,37.6 Z" id="line" fill="#000000"></path>
            <path d="M35,27.1 L71,27.1 C71.7,27.1 72.2,26.6 72.2,25.9 C72.2,25.2 71.7,24.7 71,24.7 L35,24.7 C34.3,24.7 33.8,25.2 33.8,25.9 C33.8,26.6 34.4,27.1 35,27.1 Z" id="line" fill="#000000"></path>
            <path d="M35,14.1 L71,14.1 C71.7,14.1 72.2,13.6 72.2,12.9 C72.2,12.2 71.7,11.7 71,11.7 L35,11.7 C34.3,11.7 33.8,12.2 33.8,12.9 C33.8,13.6 34.4,14.1 35,14.1 Z" id="line" fill="#000000"></path>
            <rect id="photo" fill="#000000" x="9" y="11" width="19" height="16"></rect>
        </g>
    </g>
</svg>