<?xml version="1.0" encoding="UTF-8"?>
<svg width="116px" height="92px" viewBox="0 0 116 92" version="1.1" xmlns="http://www.w3.org/2000/svg" xmlns:xlink="http://www.w3.org/1999/xlink">
    <!-- Generator: Sketch 52.6 (67491) - http://www.bohemiancoding.com/sketch -->
    <title>design</title>
    <desc>Created with Sketch.</desc>
    <g id="Page-1" stroke="none" stroke-width="1" fill="none" fill-rule="evenodd">
        <g id="design">
            <rect id="canvas" stroke="#000000" stroke-width="3.90000021" fill="#FFFFFF" x="1.95000011" y="1.95000011" width="105.583146" height="73.8464787"></rect>
            <path d="M96.7101124,31.0985915 L93.0606742,31.0985915 C92.0529096,31.0985915 91.2359551,31.9107848 91.2359551,32.9126761 C91.2359551,33.9145673 92.0529096,34.7267606 93.0606742,34.7267606 L96.7101124,34.7267606 C97.7178769,34.7267606 98.5348315,33.9145673 98.5348315,32.9126761 C98.5348315,31.9107848 97.7178769,31.0985915 96.7101124,31.0985915 Z" id="div" fill="#000000"></path>
            <path d="M86.2831461,31.0985915 L82.6337079,31.0985915 C81.6259433,31.0985915 80.8089888,31.9107848 80.8089888,32.9126761 C80.8089888,33.9145673 81.6259433,34.7267606 82.6337079,34.7267606 L86.2831461,34.7267606 C87.2909106,34.7267606 88.1078652,33.9145673 88.1078652,32.9126761 C88.1078652,31.9107848 87.2909106,31.0985915 86.2831461,31.0985915 Z" id="div" fill="#000000"></path>
            <path d="M90.7052367,9.87131845 C90.3502223,9.36923081 89.7715516,9.07042254 89.1542254,9.07042254 C88.5368993,9.07042254 87.9582286,9.36923081 87.6032142,9.87131845 L78.4796187,24.3839945 C78.1273518,24.9443233 78.1094013,25.6507569 78.432761,26.2280539 C78.7561208,26.8053509 79.3696403,27.1621918 80.0342794,27.1595438 L98.2814704,27.1595438 C98.944803,27.1595454 99.555888,26.8016686 99.877451,26.2248713 C100.199014,25.6480739 100.180398,24.9432207 99.8288322,24.3839945 L90.7052367,9.87131845 Z M83.3187738,23.5313748 L89.1578749,14.2559607 L94.996976,23.5313748 L83.3187738,23.5313748 Z" id="Shape" fill="#000000" fill-rule="nonzero"></path>
            <ellipse id="Oval" stroke="#000000" stroke-width="3.90000021" fill="#FFFFFF" cx="23.4606742" cy="57.0140845" rx="9.12359551" ry="9.07042254"></ellipse>
            <rect id="Rectangle" stroke="#000000" stroke-width="3.25000018" fill="#FFFFFF" x="2.92837088" y="3.95739446" width="16.3005616" height="16.1866195"></rect>
            <path d="M9.12359551,37.0501934 C14.7181274,32.6784259 18.9917281,31.585484 21.9443977,33.7713678 C26.3734021,37.0501934 29.1252184,45.1214588 38.4494382,39.7605634 C47.773658,34.399668 52.0150066,26.0819713 60.1736989,28.3910707 C68.3323913,30.7001701 69.9772182,41.9608713 79.7611047,45.1320413 C86.2836958,47.2461546 91.4120167,46.3332493 95.1460674,42.3933256" id="drawnline" stroke="#F24738" stroke-width="3.25000018" stroke-linecap="round"></path>
            <g id="pencil" transform="translate(107.528090, 57.014085) rotate(-180.000000) translate(-107.528090, -57.014085) translate(99.056180, 22.028169)" fill-rule="nonzero">
                <path d="M16.2354605,10.5602365 L16.2354605,52.4327548 L8.41523582,69.2778252 L0.595011099,52.4327548 L0.595011099,9.43107344 L0.649516762,9.43107344 L0.649516762,9.26446181 C0.649516762,8.54383594 1.23449903,7.96868716 1.95611118,7.96868716 L14.9833718,7.96868716 C15.6959406,7.96868716 16.2899662,8.54882523 16.2899662,9.26446181 L16.2899662,10.5602365 L16.2354605,10.5602365 Z" id="Path" fill="#000000"></path>
                <polygon id="Path" fill="#FFFFFF" points="13.628719 10.3379167 13.628719 49.4850691 8.41523582 62.5766322 3.20175267 49.4850691 3.20175267 10.3379167"></polygon>
                <path d="M5.30853955,0.259155227 C0.529513418,0.259155227 0.529513418,3.49859185 0.529513418,3.49859185 L0.529513418,6.73802846 L3.19076065,6.73802846 L3.19076078,3.49859185 C3.19076078,3.49859185 3.19076078,2.85007181 5.30853968,2.85007181 L11.3909362,2.85007181 C13.6177264,2.85007181 13.6177269,3.49859185 13.6177269,3.49859185 L13.6177264,6.73802846 L16.1699629,6.73802846 L16.1699629,3.49859185 C16.1699629,3.49859185 16.2895944,0.259155227 11.3909366,0.259155227 L5.30853955,0.259155227 Z" id="Path" fill="#000000"></path>
            </g>
        </g>
    </g>
</svg>